<mxfile host="app.diagrams.net" modified="2023-04-06T09:08:15.644Z" agent="Mozilla/5.0 (Macintosh; Intel Mac OS X 10.15; rv:109.0) Gecko/20100101 Firefox/111.0" version="21.1.4" etag="yKImuFFwwZ4l9ztDMOZJ" type="github">
  <diagram name="Pagina-1" id="omHRPhUKlxqNc8UV0jen">
    <mxGraphModel>
      <root>
        <mxCell id="0" />
        <mxCell id="1" parent="0" />
      </root>
    </mxGraphModel>
  </diagram>
</mxfile>
